<svg version="1.2" xmlns="http://www.w3.org/2000/svg" viewBox="199.00000000000003 105.00000000000001 336 281" width="100%" height="auto">
<style>
  .a{fill:var(--logo-primary, #004a8a)}
  .b{fill:var(--logo-secondary, #377ebb)}
</style>
<path class="a" d="m463.7 336.9c-9 0-13.6 4.8-13.6 14.6 0 10.1 4.3 14.8 13.4 14.8 4.2 0 8.8-1.5 8.8-3.2 0-0.6-0.9-2.8-1.8-2.8-0.6 0-2.9 1.9-7 1.9-5.7 0-8.4-3.5-8.4-10.6 0-7.3 2.7-10.6 8.6-10.6 3.9 0 5.7 1.6 6.2 1.6 0.8 0 2-2.1 2-3 0-1.4-4.3-2.7-8.2-2.7zm35 0.2h-0.8c-1.4 0-2.1 0.4-2.1 1.1v11h-13.2v-11c0-0.7-0.6-1.1-2-1.1h-0.8c-1.4 0-2.1 0.4-2.1 1.1v26.8c0 0.7 0.7 1.1 2.1 1.1h0.8c1.4 0 2-0.4 2-1.1v-11.7h13.2v11.7c0 0.7 0.7 1.1 2.1 1.1h0.8c1.4 0 2-0.4 2-1.1v-26.8c0-0.7-0.6-1.1-2-1.1z"/><path class="a" d="m241.7 336.9c-9 0-13.6 4.8-13.6 14.6 0 10.1 4.3 14.8 13.4 14.8 4.2 0 8.8-1.5 8.8-3.2 0-0.6-0.9-2.8-1.8-2.8-0.6 0-2.9 1.9-7 1.9-5.7 0-8.4-3.5-8.4-10.6 0-7.3 2.7-10.6 8.6-10.6 3.9 0 5.7 1.6 6.2 1.6 0.8 0 2-2.1 2-3 0-1.4-4.3-2.7-8.2-2.7zm25.4 0c-8.4 0-13 5-13 14.6 0 9.6 4.6 14.8 13 14.8 8.3 0 12.9-5.2 12.9-14.8 0-9.6-4.6-14.6-12.9-14.6zm-0.1 4.1c5.3 0 8 3.6 8 10.5 0 7-2.7 10.7-8 10.7-5.2 0-7.9-3.7-7.9-10.7 0-6.9 2.7-10.5 7.9-10.5zm27.3-3.8h-7.4c-1 0-1.4 0.4-1.4 1.4v26.4c0 0.7 0.6 1.1 2 1.1h0.8c1.4 0 2-0.4 2-1.1v-11.1h2.8c3 0 4.2 0.9 5.3 3.4l3.2 8c0.2 0.5 1 0.8 1.9 0.8h1c1.4 0 2.1-0.3 2.1-0.8 0-0.1-0.1-0.3-0.2-0.6l-3.4-8.5c-0.9-2.4-2-4.1-3.4-4.6v-0.2c2.9-1.1 4.8-3.4 4.8-6.7 0-5.1-3.3-7.5-10.1-7.5zm0.5 4.1c2.8 0 4.7 1.3 4.7 4.1 0 2.4-2 4.4-4.4 4.4h-4.8v-8.5zm36.4-4.2h-0.8c-1.4 0-2 0.4-2 1.1v18.3c0 3.3-2.8 5.7-6.7 5.7-3.9 0-6.7-2.4-6.7-5.7v-18.3c0-0.7-0.7-1.1-2.1-1.1h-0.7c-1.4 0-2.1 0.4-2.1 1.1v18.4c0 6.1 4.2 9.7 11.6 9.7 7.3 0 11.6-3.6 11.6-9.7v-18.4c0-0.7-0.7-1.1-2.1-1.1zm22.6-5.1c-1.1 0-3.9-1.9-6.1-1.9-1.3 0-2.7 0.6-3.6 3-0.2 0.6-0.2 0.9 0.3 1.1l0.9 0.3c0.5 0.2 0.7 0.2 1-0.5 0.6-0.9 1-1.3 1.5-1.3 1.1 0 3.8 1.9 6 1.9 1.5 0 2.8-0.9 3.6-3 0.2-0.6 0.2-0.9-0.2-1.1l-0.9-0.3c-0.5-0.2-0.7-0.2-1.1 0.5-0.5 0.8-0.9 1.3-1.4 1.3zm6.5 5.1h-0.7c-1.4 0-2 0.4-2 1.1v19.6l-1.2-2.1-11.6-17.7c-0.5-0.7-1.2-0.9-2.2-0.9h-1.2c-1.4 0-2.1 0.4-2.1 1.1v26.8c0 0.7 0.7 1.1 2.1 1.1h0.6c1.4 0 2-0.4 2-1.1v-19.8l1 1.7 12.1 18.4c0.5 0.6 1.1 0.8 2.1 0.8h1.1c1.4 0 2-0.4 2-1.1v-26.8c0-0.7-0.6-1.1-2-1.1zm19.1 0h-1.6c-0.9 0-1.7 0.1-1.9 0.7l-9.5 26.8c-0.1 0.3-0.1 0.5-0.1 0.7 0 0.5 0.7 0.8 2.1 0.8h0.8c0.9 0 1.6-0.2 1.8-0.8l2-6h11.1l2.1 6c0.2 0.6 0.9 0.8 1.9 0.8h1c1.3 0 1.9-0.3 1.9-0.8 0-0.2-0.1-0.4-0.1-0.6l-9.5-26.9c-0.2-0.6-1-0.7-2-0.7zm-0.7 5.5c0.1 0.8 0.3 1.7 0.5 2.5l3.5 10.1h-8.2l3.5-10.1c0.2-0.9 0.4-1.7 0.6-2.5zm43.3-5.4h-19.4c-0.7 0-1 0.5-1 1.6v0.9c0 1.1 0.3 1.6 1 1.6h7.3v23.7c0 0.7 0.6 1.1 2 1.1h0.8c1.5 0 2-0.4 2-1.1v-23.7h7.3c0.7 0 1-0.5 1-1.6v-0.9c0-1.1-0.3-1.6-1-1.6z"/><path fill-rule="evenodd" class="b" d="m428.9 348.9h12.7c1 0 1.8 0.9 1.8 2 0 1.2-0.8 2.1-1.8 2.1h-12.7c-1 0-1.3-0.7-1.3-1.8l-0.1-0.6c0-1.1 0.4-1.7 1.4-1.7z"/><path fill-rule="evenodd" class="b" d="m429.7 341h14.5c1 0 1.8-0.9 1.8-2.1 0-1.1-0.8-2-1.8-2h-7.3c-8.7 0-9 2.1-9 3.3 0 0.3-0.1 0.6-0.1 0.6 0 0.1 0.4 0.2 1.9 0.2z"/><path fill-rule="evenodd" class="b" d="m429.7 361.9h14.5c1 0 1.8 0.9 1.8 2 0 1.2-0.8 2.1-1.8 2.1h-7.3c-8.7 0-9-2.2-9-3.3 0-0.3-0.1-0.7-0.1-0.7 0 0 0.4-0.1 1.9-0.1z"/><path fill-rule="evenodd" class="b" d="m226 269.5c0-79.9 62.8-144.5 140.5-144.5 77.7 0 140.5 64.6 140.5 144.5 0 17.4-3 34.1-8.4 49.5h-94.8v-66c2.4-0.2 4.2-2.1 4.2-4.5 0-2.5-2-4.5-4.5-4.5h-8.7v-25.2c1.9-0.6 3.2-2.3 3.2-4.3 0-2.5-2-4.5-4.5-4.5h-8.7v-20c2.4-0.2 4.2-2.1 4.2-4.5 0-2.4-1.8-4.3-4.2-4.5v-39c0-2.5-2-4.5-4.5-4.5-2.4 0-4.5 2-4.5 4.5v23l-6.5-6.8q-0.2-0.3-0.4-0.5c-1.8-1.8-4.7-1.9-6.5-0.1l-9.5 9.1q-0.6 0.7-1 1.5-0.5 0.9-0.5 2l-0.1 9.3q0 0.8 0.2 1.5h-5c-2.5 0-4.5 2-4.5 4.5 0 2.5 2 4.5 4.5 4.5h0.4l-0.2 20h-9.2c-2.5 0-4.5 2-4.5 4.5 0 2.3 1.7 4.2 3.9 4.5l-0.2 24.6q0 0.2 0 0.4h-10.2c-2.5 0-4.5 2-4.5 4.5 0 2.5 2 4.5 4.5 4.5h0.4l-0.7 66h-91.8c-5.4-15.4-8.4-32.1-8.4-49.5zm145.3-90q0 0.8 0.2 1.5h-11.4q0.2-0.7 0.2-1.4l0.1-7.3 5.2-5 5.8 6.1zm4.5 30.4h-20.1l0.2-20h19.9zm10 34h-40.2q0-0.1 0-0.2l0.3-24.8h39.9zm9 75q0 0 0 0h-59.6l0.7-66h58.9zm-23.8-87.5c0-3.5-2.2-6.5-5-6.5-2.7 0-5 3-5 6.5 0 3.6 2.3 6.5 5 6.5 2.8 0 5-2.9 5-6.5zm9 42c0-3.5-2.2-6.5-5-6.5-2.7 0-5 3-5 6.5 0 3.6 2.3 6.5 5 6.5 2.8 0 5-2.9 5-6.5zm-19 0c0-3.5-2.2-6.5-5-6.5-2.7 0-5 3-5 6.5 0 3.6 2.3 6.5 5 6.5 2.8 0 5-2.9 5-6.5zm0 30c0-3.5-2.2-6.5-5-6.5-2.7 0-5 3-5 6.5 0 3.6 2.3 6.5 5 6.5 2.8 0 5-2.9 5-6.5zm19 0c0-3.5-2.2-6.5-5-6.5-2.7 0-5 3-5 6.5 0 3.6 2.3 6.5 5 6.5 2.8 0 5-2.9 5-6.5z"/>
</svg>